<!--
  SPDX-FileCopyrightText: Copyright (C) 2026 ChiefGyk3D
  SPDX-License-Identifier: GPL-3.0-or-later

  The tray icon, awake. Hammunition Hill's sunset disc, hill and two colours
  (#912795, #ed9a1c) with Tux holding a handheld in place of the mast.
  No clipPath, mask or filter: Qt's SVG renderer, which Plasma draws icons
  with, ignores them, and a clipped hill spilled out of the disc.
-->
<svg xmlns="http://www.w3.org/2000/svg" viewBox="0 0 64 64">
  <circle cx="32" cy="32" r="30" fill="#912795"/>
  <path d="M3.4 41 Q16 38 32 44 Q46 49 60.6 41 A30 30 0 0 1 3.4 41 Z" fill="#2b0b30"/>
  <g stroke="#ed9a1c" stroke-width="3" fill="none" stroke-linecap="round">
    <path d="M51 9 A8 8 0 0 1 56 20"/>
    <path d="M54 3 A15 15 0 0 1 62 21"/>
  </g>
  <ellipse cx="26" cy="41" rx="12" ry="15" fill="#111418"/>
  <circle cx="26" cy="24" r="9.5" fill="#111418"/>
  <ellipse cx="26" cy="43" rx="7.5" ry="10.5" fill="#f4f1ea"/>
  <ellipse cx="22.5" cy="23" rx="2.6" ry="3.2" fill="#f4f1ea"/>
  <ellipse cx="29.5" cy="23" rx="2.6" ry="3.2" fill="#f4f1ea"/>
  <circle cx="23" cy="23.6" r="1.3" fill="#111418"/>
  <circle cx="29" cy="23.6" r="1.3" fill="#111418"/>
  <ellipse cx="26" cy="28.5" rx="4" ry="2" fill="#ed9a1c"/>
  <ellipse cx="20" cy="56" rx="4.5" ry="2.2" fill="#ed9a1c"/>
  <ellipse cx="32" cy="56" rx="4.5" ry="2.2" fill="#ed9a1c"/>
  <path d="M47 11 V28" stroke="#ed9a1c" stroke-width="3" stroke-linecap="round"/>
  <rect x="40" y="26" width="10" height="17" rx="2" fill="#111418" stroke="#f4f1ea" stroke-width="1.5"/>
  <rect x="42.5" y="29" width="5" height="4" fill="#ed9a1c"/>
  <ellipse cx="38" cy="38" rx="5" ry="3.2" transform="rotate(-35 38 38)" fill="#111418"/>
</svg>
